<?xml version="1.0" encoding="UTF-8" standalone="no"?>
<svg
   xmlns:dc="http://purl.org/dc/elements/1.1/"
   xmlns:cc="http://creativecommons.org/ns#"
   xmlns:rdf="http://www.w3.org/1999/02/22-rdf-syntax-ns#"
   xmlns:svg="http://www.w3.org/2000/svg"
   xmlns="http://www.w3.org/2000/svg"
   xmlns:sodipodi="http://sodipodi.sourceforge.net/DTD/sodipodi-0.dtd"
   xmlns:inkscape="http://www.inkscape.org/namespaces/inkscape"
   version="1.1"
   viewBox="0 0 101.53217 72.187477"
   fill="none"
   stroke="none"
   stroke-linecap="square"
   stroke-miterlimit="10"
   id="svg23"
   sodipodi:docname="classification_csv_output.svg"
   width="101.53217"
   height="72.187477"
   inkscape:version="1.0.2-2 (e86c870879, 2021-01-15)">
  <metadata
     id="metadata29">
    <rdf:RDF>
      <cc:Work
         rdf:about="">
        <dc:format>image/svg+xml</dc:format>
        <dc:type
           rdf:resource="http://purl.org/dc/dcmitype/StillImage" />
        <dc:title></dc:title>
      </cc:Work>
    </rdf:RDF>
  </metadata>
  <defs
     id="defs27" />
  <sodipodi:namedview
     pagecolor="#ffffff"
     bordercolor="#666666"
     borderopacity="1"
     objecttolerance="10"
     gridtolerance="10"
     guidetolerance="10"
     inkscape:pageopacity="0"
     inkscape:pageshadow="2"
     inkscape:window-width="1920"
     inkscape:window-height="1017"
     id="namedview25"
     showgrid="false"
     inkscape:zoom="1.0645833"
     inkscape:cx="145.25766"
     inkscape:cy="160.14509"
     inkscape:window-x="-8"
     inkscape:window-y="-8"
     inkscape:window-maximized="1"
     inkscape:current-layer="g21" />
  <clipPath
     id="g180484ea9c9_0_0.0">
    <path
       d="M 0,0 H 960 V 540 H 0 Z"
       clip-rule="nonzero"
       id="path2" />
  </clipPath>
  <g
     clip-path="url(#g180484ea9c9_0_0.0)"
     id="g21"
     transform="translate(-334.74234,-109.85491)">
    <path
       fill="#000000"
       fill-opacity="0"
       d="M 325.3517,98.708664 H 620.50133 V 195.65355 H 325.3517 Z"
       fill-rule="evenodd"
       id="path7" />
    <path
       fill="#000000"
       d="m 336.5236,117.94866 v -4.375 h -1.70313 v -0.96875 h 1.70313 v -0.8125 q 0,-1.89062 2.17187,-1.89062 0.29688,0 0.64063,0.0625 0.35937,0.0625 0.65625,0.15625 v 1.04687 q -0.39063,-0.14062 -0.67188,-0.1875 -0.28125,-0.0469 -0.59375,-0.0469 -0.5,0 -0.75,0.23437 -0.23437,0.23438 -0.23437,0.78125 v 0.65625 h 2.25 v 0.96875 h -2.25 v 4.375 z m 7.3938,-6.39062 q -0.375,0 -0.625,-0.25 -0.25,-0.25 -0.25,-0.60938 0,-0.34375 0.25,-0.59375 0.25,-0.25 0.625,-0.25 0.34375,0 0.59375,0.25 0.25,0.25 0.25,0.59375 0,0.35938 -0.25,0.60938 -0.25,0.25 -0.59375,0.25 z m 1.35937,6.5 q -0.96875,0 -1.46875,-0.45313 -0.5,-0.46875 -0.5,-1.35937 v -2.67188 h -1.92187 v -0.96875 h 3.125 v 3.51563 q 0,0.46875 0.21875,0.6875 0.23437,0.21875 0.70312,0.21875 0.26563,0 0.51563,-0.0469 0.26562,-0.0625 0.57812,-0.1875 v 1.01563 q -0.25,0.0937 -0.59375,0.17187 -0.34375,0.0781 -0.65625,0.0781 z m 6.31571,0 q -0.95313,0 -1.46875,-0.45313 -0.5,-0.46875 -0.5,-1.35937 v -5.09375 h -1.92188 v -0.95313 h 3.125 v 5.92188 q 0,0.46875 0.21875,0.6875 0.23438,0.21875 0.71875,0.21875 0.25,0 0.5,-0.0469 0.26563,-0.0625 0.57813,-0.1875 v 1.01563 q -0.25,0.0937 -0.59375,0.17187 -0.32813,0.0781 -0.65625,0.0781 z m 5.2688,0 q -0.76563,0 -1.40625,-0.35938 -0.625,-0.375 -1,-1 -0.35938,-0.64062 -0.35938,-1.42187 0,-0.78125 0.34375,-1.39063 0.34375,-0.625 0.95313,-0.98437 0.60937,-0.375 1.34375,-0.375 0.78125,0 1.375,0.35937 0.60937,0.35938 0.95312,0.98438 0.34375,0.60937 0.34375,1.40625 v 0.29687 h -4.125 q 0.0469,0.4375 0.28125,0.78125 0.23438,0.32813 0.57813,0.51563 0.35937,0.1875 0.79687,0.1875 0.40625,0 0.76563,-0.15625 0.35937,-0.15625 0.59375,-0.4375 l 0.79687,0.70312 q -0.45312,0.46875 -1.01562,0.6875 -0.54688,0.20313 -1.21875,0.20313 z m -1.5625,-3.25 h 2.96875 q -0.0625,-0.39063 -0.28125,-0.67188 -0.20313,-0.29687 -0.51563,-0.45312 -0.3125,-0.17188 -0.70312,-0.17188 -0.375,0 -0.6875,0.15625 -0.29688,0.15625 -0.5,0.45313 -0.20313,0.29687 -0.28125,0.6875 z m 5.48758,3.14062 v -5.34375 h 1.20312 v 0.79688 q 0.625,-0.875 1.64063,-0.875 0.5625,0 0.96875,0.25 0.42187,0.23437 0.65625,0.67187 0.25,0.42188 0.25,0.98438 v 3.51562 h -1.21875 v -3.17187 q 0,-0.59375 -0.32813,-0.9375 -0.3125,-0.34375 -0.84375,-0.34375 -0.34375,0 -0.64062,0.15625 -0.28125,0.14062 -0.48438,0.42187 v 3.875 z m 8.11255,0.0937 q -0.5625,0 -1,-0.20312 -0.4375,-0.20313 -0.6875,-0.5625 -0.23438,-0.375 -0.23438,-0.85938 0,-0.48437 0.25,-0.82812 0.25,-0.35938 0.71875,-0.54688 0.46875,-0.1875 1.10938,-0.1875 0.375,0 0.73437,0.0781 0.375,0.0781 0.73438,0.25 v -0.53125 q 0,-0.5625 -0.3125,-0.84375 -0.3125,-0.28125 -0.95313,-0.28125 -0.34375,0 -0.73437,0.10937 -0.39063,0.10938 -0.875,0.34375 l -0.45313,-0.875 q 0.625,-0.29687 1.1875,-0.4375 0.5625,-0.14062 1.10938,-0.14062 1.0625,0 1.64062,0.53125 0.57813,0.51562 0.57813,1.46875 v 3.42187 h -1.1875 v -0.5625 q -0.35938,0.34375 -0.76563,0.5 -0.39062,0.15625 -0.85937,0.15625 z m -0.78125,-1.65625 q 0,0.375 0.29687,0.59375 0.29688,0.21875 0.8125,0.21875 0.375,0 0.6875,-0.10937 0.32813,-0.125 0.60938,-0.35938 v -0.84375 q -0.29688,-0.125 -0.60938,-0.1875 -0.29687,-0.0781 -0.65625,-0.0781 -0.53125,0 -0.84375,0.21875 -0.29687,0.20312 -0.29687,0.54687 z m 5.14382,1.5625 v -5.34375 h 1.03125 v 0.46875 q 0.1875,-0.28125 0.42188,-0.40625 0.23437,-0.125 0.51562,-0.125 0.34375,0 0.60938,0.17188 0.28125,0.15625 0.42187,0.45312 0.21875,-0.32812 0.5,-0.46875 0.28125,-0.15625 0.625,-0.15625 0.53125,0 0.85938,0.39063 0.34375,0.375 0.34375,0.98437 v 4.03125 h -1.03125 v -3.70312 q 0,-0.39063 -0.15625,-0.60938 -0.15625,-0.21875 -0.45313,-0.21875 -0.15625,0 -0.28125,0.0625 -0.125,0.0625 -0.25,0.23438 0.0312,0.0625 0.0312,0.125 0,0.0625 0,0.14062 v 3.96875 h -1.03125 v -3.70312 q 0,-0.39063 -0.17187,-0.60938 -0.15625,-0.21875 -0.45313,-0.21875 -0.125,0 -0.26562,0.0625 -0.125,0.0469 -0.23438,0.20313 v 4.26562 z m 9.17505,0.10938 q -0.76562,0 -1.40625,-0.35938 -0.625,-0.375 -1,-1 -0.35937,-0.64062 -0.35937,-1.42187 0,-0.78125 0.34375,-1.39063 0.34375,-0.625 0.95312,-0.98437 0.60938,-0.375 1.34375,-0.375 0.78125,0 1.375,0.35937 0.60938,0.35938 0.95313,0.98438 0.34375,0.60937 0.34375,1.40625 v 0.29687 h -4.125 q 0.0469,0.4375 0.28125,0.78125 0.23437,0.32813 0.57812,0.51563 0.35938,0.1875 0.79688,0.1875 0.40625,0 0.76562,-0.15625 0.35938,-0.15625 0.59375,-0.4375 l 0.79688,0.70312 q -0.45313,0.46875 -1.01563,0.6875 -0.54687,0.20313 -1.21875,0.20313 z m -1.5625,-3.25 h 2.96875 q -0.0625,-0.39063 -0.28125,-0.67188 -0.20312,-0.29687 -0.51562,-0.45312 -0.3125,-0.17188 -0.70313,-0.17188 -0.375,0 -0.6875,0.15625 -0.29687,0.15625 -0.5,0.45313 -0.20312,0.29687 -0.28125,0.6875 z m 6.72196,4.90625 0.64062,-2.8125 h 1.40625 l -1.15625,2.8125 z m 7.62817,-1.65625 q -0.78125,0 -1.42187,-0.35938 -0.625,-0.375 -1,-1 -0.35938,-0.625 -0.35938,-1.40625 0,-0.78125 0.35938,-1.40625 0.375,-0.64062 1,-1 0.64062,-0.35937 1.42187,-0.35937 0.79688,0 1.42188,0.34375 0.64062,0.34375 1,0.90625 l -0.9375,0.64062 q -0.20313,-0.39062 -0.59375,-0.60937 -0.39063,-0.23438 -0.89063,-0.23438 -0.45312,0 -0.8125,0.21875 -0.35937,0.21875 -0.5625,0.60938 -0.20312,0.39062 -0.20312,0.89062 0,0.5 0.20312,0.89063 0.20313,0.375 0.5625,0.60937 0.35938,0.21875 0.8125,0.21875 0.5,0 0.89063,-0.21875 0.39062,-0.23437 0.59375,-0.625 l 0.9375,0.64063 q -0.35938,0.5625 -1,0.90625 -0.625,0.34375 -1.42188,0.34375 z m 7.51883,0 q -0.95312,0 -1.46875,-0.45313 -0.5,-0.46875 -0.5,-1.35937 v -5.09375 h -1.92187 v -0.95313 h 3.125 v 5.92188 q 0,0.46875 0.21875,0.6875 0.23437,0.21875 0.71875,0.21875 0.25,0 0.5,-0.0469 0.26562,-0.0625 0.57812,-0.1875 v 1.01563 q -0.25,0.0937 -0.59375,0.17187 -0.32812,0.0781 -0.65625,0.0781 z m 4.5188,-0.0156 q -0.5625,0 -1,-0.20312 -0.4375,-0.20313 -0.6875,-0.5625 -0.23437,-0.375 -0.23437,-0.85938 0,-0.48437 0.25,-0.82812 0.25,-0.35938 0.71875,-0.54688 0.46875,-0.1875 1.10937,-0.1875 0.375,0 0.73438,0.0781 0.375,0.0781 0.73437,0.25 v -0.53125 q 0,-0.5625 -0.3125,-0.84375 -0.3125,-0.28125 -0.95312,-0.28125 -0.34375,0 -0.73438,0.10937 -0.39062,0.10938 -0.875,0.34375 l -0.45312,-0.875 q 0.625,-0.29687 1.1875,-0.4375 0.5625,-0.14062 1.10937,-0.14062 1.0625,0 1.64063,0.53125 0.57812,0.51562 0.57812,1.46875 v 3.42187 h -1.1875 v -0.5625 q -0.35937,0.34375 -0.76562,0.5 -0.39063,0.15625 -0.85938,0.15625 z m -0.78125,-1.65625 q 0,0.375 0.29688,0.59375 0.29687,0.21875 0.8125,0.21875 0.375,0 0.6875,-0.10937 0.32812,-0.125 0.60937,-0.35938 v -0.84375 q -0.29687,-0.125 -0.60937,-0.1875 -0.29688,-0.0781 -0.65625,-0.0781 -0.53125,0 -0.84375,0.21875 -0.29688,0.20312 -0.29688,0.54687 z m 7.7532,1.67188 q -0.75,0 -1.39062,-0.1875 -0.625,-0.20313 -1.07813,-0.57813 l 0.59375,-0.79687 q 0.54688,0.34375 0.98438,0.48437 0.4375,0.14063 0.875,0.14063 0.59375,0 0.9375,-0.1875 0.34375,-0.20313 0.34375,-0.51563 0,-0.23437 -0.20313,-0.375 -0.1875,-0.14062 -0.5,-0.20312 -0.29687,-0.0625 -0.67187,-0.10938 -0.375,-0.0625 -0.76563,-0.14062 -0.375,-0.0937 -0.6875,-0.25 -0.3125,-0.15625 -0.51562,-0.4375 -0.1875,-0.28125 -0.1875,-0.73438 0,-0.51562 0.28125,-0.875 0.28125,-0.375 0.78125,-0.57812 0.51562,-0.20313 1.15625,-0.20313 0.625,0 1.20312,0.17188 0.57813,0.15625 1.10938,0.53125 l -0.57813,0.78125 q -0.4375,-0.29688 -0.875,-0.42188 -0.4375,-0.125 -0.89062,-0.125 -0.51563,0 -0.8125,0.17188 -0.29688,0.15625 -0.29688,0.45312 0,0.23438 0.1875,0.375 0.20313,0.125 0.51563,0.1875 0.32812,0.0625 0.70312,0.125 0.39063,0.0469 0.76563,0.14063 0.375,0.0781 0.6875,0.23437 0.32812,0.15625 0.51562,0.45313 0.20313,0.28125 0.20313,0.75 0,0.5 -0.32813,0.89062 -0.3125,0.39063 -0.85937,0.60938 -0.53125,0.21875 -1.20313,0.21875 z m 6.3938,0 q -0.75,0 -1.39062,-0.1875 -0.625,-0.20313 -1.07813,-0.57813 l 0.59375,-0.79687 q 0.54688,0.34375 0.98438,0.48437 0.4375,0.14063 0.875,0.14063 0.59375,0 0.9375,-0.1875 0.34375,-0.20313 0.34375,-0.51563 0,-0.23437 -0.20313,-0.375 -0.1875,-0.14062 -0.5,-0.20312 -0.29687,-0.0625 -0.67187,-0.10938 -0.375,-0.0625 -0.76563,-0.14062 -0.375,-0.0937 -0.6875,-0.25 -0.3125,-0.15625 -0.51562,-0.4375 -0.1875,-0.28125 -0.1875,-0.73438 0,-0.51562 0.28125,-0.875 0.28125,-0.375 0.78125,-0.57812 0.51562,-0.20313 1.15625,-0.20313 0.625,0 1.20312,0.17188 0.57813,0.15625 1.10938,0.53125 l -0.57813,0.78125 q -0.4375,-0.29688 -0.875,-0.42188 -0.4375,-0.125 -0.89062,-0.125 -0.51563,0 -0.8125,0.17188 -0.29688,0.15625 -0.29688,0.45312 0,0.23438 0.1875,0.375 0.20313,0.125 0.51563,0.1875 0.32812,0.0625 0.70312,0.125 0.39063,0.0469 0.76563,0.14063 0.375,0.0781 0.6875,0.23437 0.32812,0.15625 0.51562,0.45313 0.20313,0.28125 0.20313,0.75 0,0.5 -0.32813,0.89062 -0.3125,0.39063 -0.85937,0.60938 -0.53125,0.21875 -1.20313,0.21875 z"
       fill-rule="nonzero"
       id="path9" />
    <path
       fill="#000000"
       d="m 338.49234,130.85803 q -1,0 -1.53125,-0.4375 -0.51562,-0.45312 -0.51562,-1.29687 v -2.75 h -1.70313 v -0.96875 h 1.70313 v -1.46875 l 1.20312,-0.25 v 1.71875 h 2.26563 v 0.96875 h -2.26563 v 2.51562 q 0,0.5 0.23438,0.71875 0.25,0.21875 0.76562,0.21875 0.28125,0 0.57813,-0.0469 0.29687,-0.0469 0.70312,-0.1875 v 1.01562 q -0.34375,0.10938 -0.71875,0.17188 -0.375,0.0781 -0.71875,0.0781 z m 5.5813,0 q -0.76563,0 -1.40625,-0.35937 -0.625,-0.375 -1,-1 -0.35938,-0.64063 -0.35938,-1.42188 0,-0.78124 0.34375,-1.39062 0.34375,-0.625 0.95313,-0.98437 0.60937,-0.375 1.34375,-0.375 0.78125,0 1.375,0.35937 0.60937,0.35938 0.95312,0.98438 0.34375,0.60937 0.34375,1.40624 v 0.29688 h -4.125 q 0.0469,0.4375 0.28125,0.78125 0.23438,0.32812 0.57813,0.51562 0.35937,0.1875 0.79687,0.1875 0.40625,0 0.76563,-0.15625 0.35937,-0.15625 0.59375,-0.4375 l 0.79687,0.70313 q -0.45312,0.46875 -1.01562,0.6875 -0.54688,0.20312 -1.21875,0.20312 z m -1.5625,-3.24999 h 2.96875 q -0.0625,-0.39063 -0.28125,-0.67188 -0.20313,-0.29687 -0.51563,-0.45312 -0.3125,-0.17188 -0.70312,-0.17188 -0.375,0 -0.6875,0.15625 -0.29688,0.15625 -0.5,0.45313 -0.20313,0.29687 -0.28125,0.6875 z m 7.78445,3.24999 q -0.75,0 -1.39062,-0.1875 -0.625,-0.20312 -1.07813,-0.57812 l 0.59375,-0.79688 q 0.54688,0.34375 0.98438,0.48438 0.4375,0.14062 0.875,0.14062 0.59375,0 0.9375,-0.1875 0.34375,-0.20312 0.34375,-0.51562 0,-0.23438 -0.20313,-0.375 -0.1875,-0.14063 -0.5,-0.20313 -0.29687,-0.0625 -0.67187,-0.10937 -0.375,-0.0625 -0.76563,-0.14063 -0.375,-0.0937 -0.6875,-0.25 -0.3125,-0.15624 -0.51562,-0.43749 -0.1875,-0.28125 -0.1875,-0.73438 0,-0.51562 0.28125,-0.875 0.28125,-0.375 0.78125,-0.57812 0.51562,-0.20313 1.15625,-0.20313 0.625,0 1.20312,0.17188 0.57813,0.15625 1.10938,0.53125 l -0.57813,0.78125 q -0.4375,-0.29688 -0.875,-0.42188 -0.4375,-0.125 -0.89062,-0.125 -0.51563,0 -0.8125,0.17188 -0.29688,0.15625 -0.29688,0.45312 0,0.23438 0.1875,0.375 0.20313,0.125 0.51563,0.1875 0.32812,0.0625 0.70312,0.125 0.39063,0.0469 0.76563,0.14063 0.375,0.0781 0.6875,0.23437 0.32812,0.15625 0.51562,0.45312 0.20313,0.28125 0.20313,0.75 0,0.5 -0.32813,0.89063 -0.3125,0.39062 -0.85937,0.60937 -0.53125,0.21875 -1.20313,0.21875 z m 7.37818,0 q -1,0 -1.53125,-0.4375 -0.51563,-0.45312 -0.51563,-1.29687 v -2.75 h -1.70312 v -0.96875 h 1.70312 v -1.46875 l 1.20313,-0.25 v 1.71875 h 2.26562 v 0.96875 h -2.26562 v 2.51562 q 0,0.5 0.23437,0.71875 0.25,0.21875 0.76563,0.21875 0.28125,0 0.57812,-0.0469 0.29688,-0.0469 0.70313,-0.1875 v 1.01562 q -0.34375,0.10938 -0.71875,0.17188 -0.375,0.0781 -0.71875,0.0781 z m 3.0032,-0.10937 v -1 h 1.875 v -5.23437 l -1.875,0.8125 v -1.04688 l 2.3125,-0.98437 h 0.73438 v 6.45312 h 2 v 1 z m 8.84693,0.125 q -0.84375,0 -1.48438,-0.46875 -0.625,-0.46875 -0.98437,-1.32813 -0.35938,-0.85937 -0.35938,-2.06249 0,-1.20313 0.35938,-2.0625 0.35937,-0.85938 0.98437,-1.3125 0.64063,-0.46875 1.48438,-0.46875 0.82812,0 1.46875,0.46875 0.64062,0.45312 0.98437,1.3125 0.35938,0.85937 0.35938,2.0625 0,1.20312 -0.35938,2.06249 -0.34375,0.85938 -0.98437,1.32813 -0.64063,0.46875 -1.46875,0.46875 z m -1.67188,-3.85937 q 0,0.51562 0.0781,0.95312 0.0937,0.43749 0.23437,0.76562 l 2.21875,-4.20312 q -0.375,-0.32812 -0.85937,-0.32812 -0.5,0 -0.875,0.35937 -0.375,0.34375 -0.59375,0.98438 -0.20313,0.625 -0.20313,1.46875 z m 1.67188,2.81249 q 0.5,0 0.85937,-0.34375 0.375,-0.34375 0.57813,-0.96875 0.21875,-0.62499 0.21875,-1.49999 0,-0.5 -0.0937,-0.9375 -0.0781,-0.4375 -0.21875,-0.78125 l -2.21875,4.20312 q 0.375,0.32812 0.875,0.32812 z m 6.39382,1.04688 q -0.84375,0 -1.48437,-0.46875 -0.625,-0.46875 -0.98438,-1.32813 -0.35937,-0.85937 -0.35937,-2.06249 0,-1.20313 0.35937,-2.0625 0.35938,-0.85938 0.98438,-1.3125 0.64062,-0.46875 1.48437,-0.46875 0.82813,0 1.46875,0.46875 0.64063,0.45312 0.98438,1.3125 0.35937,0.85937 0.35937,2.0625 0,1.20312 -0.35937,2.06249 -0.34375,0.85938 -0.98438,1.32813 -0.64062,0.46875 -1.46875,0.46875 z m -1.67187,-3.85937 q 0,0.51562 0.0781,0.95312 0.0937,0.43749 0.23438,0.76562 l 2.21875,-4.20312 q -0.375,-0.32812 -0.85938,-0.32812 -0.5,0 -0.875,0.35937 -0.375,0.34375 -0.59375,0.98438 -0.20312,0.625 -0.20312,1.46875 z m 1.67187,2.81249 q 0.5,0 0.85938,-0.34375 0.375,-0.34375 0.57812,-0.96875 0.21875,-0.62499 0.21875,-1.49999 0,-0.5 -0.0937,-0.9375 -0.0781,-0.4375 -0.21875,-0.78125 l -2.21875,4.20312 q 0.375,0.32812 0.875,0.32812 z m 6.3938,1.04688 q -0.8125,0 -1.4375,-0.28125 -0.625,-0.28125 -0.98437,-0.76563 -0.35938,-0.5 -0.35938,-1.14062 0,-0.42188 0.20313,-0.78125 0.20312,-0.375 0.5625,-0.64062 0.375,-0.28125 0.84375,-0.39063 -0.60938,-0.20312 -0.98438,-0.64062 -0.35937,-0.45313 -0.35937,-1.01563 0,-0.57812 0.32812,-1.04687 0.32813,-0.46875 0.89063,-0.73438 0.57812,-0.26562 1.29687,-0.26562 0.71875,0 1.28125,0.26562 0.57813,0.26563 0.90625,0.73438 0.32813,0.46875 0.32813,1.04687 0,0.5625 -0.375,1.01563 -0.375,0.4375 -0.96875,0.64062 0.70312,0.17188 1.14062,0.67188 0.45313,0.49999 0.45313,1.14062 0,0.64062 -0.35938,1.14062 -0.34375,0.48438 -0.98437,0.76563 -0.625,0.28125 -1.42188,0.28125 z m 0,-4.4375 q 0.39063,0 0.6875,-0.14062 0.3125,-0.15625 0.5,-0.42188 0.1875,-0.26562 0.1875,-0.59375 0,-0.32812 -0.1875,-0.57812 -0.1875,-0.26563 -0.5,-0.42188 -0.29687,-0.15625 -0.6875,-0.15625 -0.40625,0 -0.71875,0.15625 -0.29687,0.15625 -0.48437,0.42188 -0.17188,0.25 -0.17188,0.57812 0,0.32813 0.17188,0.59375 0.1875,0.26563 0.48437,0.42188 0.3125,0.14062 0.71875,0.14062 z m 0,3.46875 q 0.46875,0 0.8125,-0.15625 0.35938,-0.17188 0.5625,-0.46875 0.21875,-0.29688 0.21875,-0.65625 0,-0.375 -0.21875,-0.65625 -0.20312,-0.29687 -0.5625,-0.45312 -0.34375,-0.17188 -0.8125,-0.17188 -0.46875,0 -0.82812,0.17188 -0.35938,0.15625 -0.57813,0.45312 -0.20312,0.28124 -0.20312,0.65625 0,0.35937 0.20312,0.65625 0.21875,0.29687 0.57813,0.46875 0.35937,0.15625 0.82812,0.15625 z m 3.89383,2.5625 v -0.85938 h 4.98438 v 0.85938 z m 8.8938,-1.59375 q -0.84375,0 -1.48437,-0.46875 -0.625,-0.46875 -0.98438,-1.32813 -0.35937,-0.85937 -0.35937,-2.06249 0,-1.20313 0.35937,-2.0625 0.35938,-0.85938 0.98438,-1.3125 0.64062,-0.46875 1.48437,-0.46875 0.82813,0 1.46875,0.46875 0.64063,0.45312 0.98438,1.3125 0.35937,0.85937 0.35937,2.0625 0,1.20312 -0.35937,2.06249 -0.34375,0.85938 -0.98438,1.32813 -0.64062,0.46875 -1.46875,0.46875 z m -1.67187,-3.85937 q 0,0.51562 0.0781,0.95312 0.0937,0.43749 0.23438,0.76562 l 2.21875,-4.20312 q -0.375,-0.32812 -0.85938,-0.32812 -0.5,0 -0.875,0.35937 -0.375,0.34375 -0.59375,0.98438 -0.20312,0.625 -0.20312,1.46875 z m 1.67187,2.81249 q 0.5,0 0.85938,-0.34375 0.375,-0.34375 0.57812,-0.96875 0.21875,-0.62499 0.21875,-1.49999 0,-0.5 -0.0937,-0.9375 -0.0781,-0.4375 -0.21875,-0.78125 l -2.21875,4.20312 q 0.375,0.32812 0.875,0.32812 z m 6.39383,1.01563 q -0.39062,0 -0.65625,-0.25 -0.25,-0.26563 -0.25,-0.625 0,-0.375 0.25,-0.64063 0.26563,-0.26562 0.65625,-0.26562 0.375,0 0.625,0.26562 0.26563,0.26563 0.26563,0.64063 0,0.35937 -0.26563,0.625 -0.25,0.25 -0.625,0.25 z m 4.00318,2.14062 v -7.57812 h 1.17187 v 0.65625 q 0.28125,-0.35937 0.65625,-0.53125 0.39063,-0.1875 0.85938,-0.1875 0.67187,0 1.21875,0.375 0.5625,0.35938 0.875,0.98438 0.32812,0.60937 0.32812,1.37499 0,0.78125 -0.32812,1.40625 -0.32813,0.60938 -0.875,0.98438 -0.54688,0.35937 -1.23438,0.35937 -0.4375,0 -0.8125,-0.15625 -0.375,-0.17187 -0.65625,-0.48437 v 2.79687 z m 2.40625,-3.14062 q 0.45312,0 0.78125,-0.21875 0.34375,-0.23438 0.53125,-0.625 0.20312,-0.40625 0.20312,-0.92188 0,-0.49999 -0.20312,-0.89062 -0.1875,-0.40625 -0.53125,-0.625 -0.32813,-0.23437 -0.78125,-0.23437 -0.35938,0 -0.67188,0.14062 -0.3125,0.14063 -0.53125,0.40625 v 2.42187 q 0.21875,0.26563 0.53125,0.40625 0.3125,0.14063 0.67188,0.14063 z m 4.03445,0.90625 v -5.34375 h 1.20312 v 0.79688 q 0.625,-0.875 1.64063,-0.875 0.5625,0 0.96875,0.25 0.42187,0.23437 0.65625,0.67187 0.25,0.42188 0.25,0.98438 v 3.51562 h -1.21875 v -3.17187 q 0,-0.59375 -0.32813,-0.9375 -0.3125,-0.34375 -0.84375,-0.34375 -0.34375,0 -0.64062,0.15625 -0.28125,0.14062 -0.48438,0.42187 v 3.875 z m 8.67505,2.32812 q -0.57813,0 -1.125,-0.14062 -0.54688,-0.125 -1.01563,-0.375 l 0.42188,-0.89063 q 0.46875,0.23438 0.875,0.34375 0.40625,0.10938 0.79687,0.10938 1.28125,0 1.28125,-1.1875 v -0.84375 q -0.28125,0.34375 -0.6875,0.53125 -0.39062,0.17187 -0.85937,0.17187 -0.65625,0 -1.20313,-0.35937 -0.53125,-0.375 -0.84375,-0.98438 -0.3125,-0.625 -0.3125,-1.375 0,-0.76562 0.32813,-1.37499 0.32812,-0.60938 0.875,-0.96875 0.5625,-0.35938 1.23437,-0.35938 0.4375,0 0.8125,0.17188 0.39063,0.15625 0.67188,0.48437 v -0.625 h 1.1875 v 5.53125 q 0,1.03125 -0.625,1.57812 -0.625,0.5625 -1.8125,0.5625 z m 0.0312,-3.26562 q 0.375,0 0.67187,-0.14063 0.3125,-0.15625 0.53125,-0.40625 v -2.35937 q -0.21875,-0.26562 -0.53125,-0.40625 -0.3125,-0.14062 -0.67187,-0.14062 -0.4375,0 -0.78125,0.21875 -0.34375,0.21875 -0.54688,0.60937 -0.1875,0.39063 -0.1875,0.89062 0,0.5 0.1875,0.89063 0.20313,0.39062 0.54688,0.625 0.34375,0.21875 0.78125,0.21875 z m 5.3157,2.70312 0.64063,-2.8125 h 1.40625 l -1.15625,2.8125 z m 7.3313,-1.64062 q -1.51562,0 -2.625,-1.01563 l 0.70313,-0.79687 q 0.48437,0.42187 0.9375,0.60937 0.46875,0.1875 1.01562,0.1875 0.48438,0 0.84375,-0.17187 0.35938,-0.1875 0.54688,-0.51563 0.20312,-0.34375 0.20312,-0.76562 0,-0.625 -0.45312,-1.01562 -0.45313,-0.39063 -1.17188,-0.39063 -0.35937,0 -0.71875,0.0937 -0.35937,0.0937 -0.75,0.29688 l -0.8125,-0.25 0.17188,-3.84375 h 4.53125 v 1 h -3.51563 l -0.0937,2.14062 q 0.40625,-0.20312 0.76563,-0.26562 0.375,-0.0781 0.76562,-0.0781 0.73438,0 1.28125,0.28125 0.5625,0.28125 0.875,0.79688 0.3125,0.5 0.3125,1.17187 0,0.75 -0.35937,1.32812 -0.34375,0.5625 -0.98438,0.89063 -0.625,0.3125 -1.46875,0.3125 z"
       fill-rule="nonzero"
       id="path11" />
    <path
       fill="#000000"
       d="m 338.49234,143.65804 q -1,0 -1.53125,-0.4375 -0.51562,-0.45313 -0.51562,-1.29688 v -2.75 h -1.70313 v -0.96875 h 1.70313 v -1.46875 l 1.20312,-0.25 v 1.71875 h 2.26563 v 0.96875 h -2.26563 v 2.51563 q 0,0.5 0.23438,0.71875 0.25,0.21875 0.76562,0.21875 0.28125,0 0.57813,-0.0469 0.29687,-0.0469 0.70312,-0.1875 v 1.01563 q -0.34375,0.10937 -0.71875,0.17187 -0.375,0.0781 -0.71875,0.0781 z m 5.5813,0 q -0.76563,0 -1.40625,-0.35938 -0.625,-0.375 -1,-1 -0.35938,-0.64062 -0.35938,-1.42187 0,-0.78125 0.34375,-1.39063 0.34375,-0.625 0.95313,-0.98437 0.60937,-0.375 1.34375,-0.375 0.78125,0 1.375,0.35937 0.60937,0.35938 0.95312,0.98438 0.34375,0.60937 0.34375,1.40625 v 0.29687 h -4.125 q 0.0469,0.4375 0.28125,0.78125 0.23438,0.32813 0.57813,0.51563 0.35937,0.1875 0.79687,0.1875 0.40625,0 0.76563,-0.15625 0.35937,-0.15625 0.59375,-0.4375 l 0.79687,0.70312 q -0.45312,0.46875 -1.01562,0.6875 -0.54688,0.20313 -1.21875,0.20313 z m -1.5625,-3.25 h 2.96875 q -0.0625,-0.39063 -0.28125,-0.67188 -0.20313,-0.29687 -0.51563,-0.45312 -0.3125,-0.17188 -0.70312,-0.17188 -0.375,0 -0.6875,0.15625 -0.29688,0.15625 -0.5,0.45313 -0.20313,0.29687 -0.28125,0.6875 z m 7.78445,3.25 q -0.75,0 -1.39062,-0.1875 -0.625,-0.20313 -1.07813,-0.57813 l 0.59375,-0.79687 q 0.54688,0.34375 0.98438,0.48437 0.4375,0.14063 0.875,0.14063 0.59375,0 0.9375,-0.1875 0.34375,-0.20313 0.34375,-0.51563 0,-0.23437 -0.20313,-0.375 -0.1875,-0.14062 -0.5,-0.20312 -0.29687,-0.0625 -0.67187,-0.10938 -0.375,-0.0625 -0.76563,-0.14062 -0.375,-0.0937 -0.6875,-0.25 -0.3125,-0.15625 -0.51562,-0.4375 -0.1875,-0.28125 -0.1875,-0.73438 0,-0.51562 0.28125,-0.875 0.28125,-0.375 0.78125,-0.57812 0.51562,-0.20313 1.15625,-0.20313 0.625,0 1.20312,0.17188 0.57813,0.15625 1.10938,0.53125 l -0.57813,0.78125 q -0.4375,-0.29688 -0.875,-0.42188 -0.4375,-0.125 -0.89062,-0.125 -0.51563,0 -0.8125,0.17188 -0.29688,0.15625 -0.29688,0.45312 0,0.23438 0.1875,0.375 0.20313,0.125 0.51563,0.1875 0.32812,0.0625 0.70312,0.125 0.39063,0.0469 0.76563,0.14063 0.375,0.0781 0.6875,0.23437 0.32812,0.15625 0.51562,0.45313 0.20313,0.28125 0.20313,0.75 0,0.5 -0.32813,0.89062 -0.3125,0.39063 -0.85937,0.60938 -0.53125,0.21875 -1.20313,0.21875 z m 7.37818,0 q -1,0 -1.53125,-0.4375 -0.51563,-0.45313 -0.51563,-1.29688 v -2.75 h -1.70312 v -0.96875 h 1.70312 v -1.46875 l 1.20313,-0.25 v 1.71875 h 2.26562 v 0.96875 h -2.26562 v 2.51563 q 0,0.5 0.23437,0.71875 0.25,0.21875 0.76563,0.21875 0.28125,0 0.57812,-0.0469 0.29688,-0.0469 0.70313,-0.1875 v 1.01563 q -0.34375,0.10937 -0.71875,0.17187 -0.375,0.0781 -0.71875,0.0781 z m 3.0032,-0.10938 v -1 h 1.875 v -5.23437 l -1.875,0.8125 v -1.04688 l 2.3125,-0.98437 h 0.73438 v 6.45312 h 2 v 1 z m 8.84693,0.125 q -0.84375,0 -1.48438,-0.46875 -0.625,-0.46875 -0.98437,-1.32812 -0.35938,-0.85938 -0.35938,-2.0625 0,-1.20313 0.35938,-2.0625 0.35937,-0.85938 0.98437,-1.3125 0.64063,-0.46875 1.48438,-0.46875 0.82812,0 1.46875,0.46875 0.64062,0.45312 0.98437,1.3125 0.35938,0.85937 0.35938,2.0625 0,1.20312 -0.35938,2.0625 -0.34375,0.85937 -0.98437,1.32812 -0.64063,0.46875 -1.46875,0.46875 z m -1.67188,-3.85937 q 0,0.51562 0.0781,0.95312 0.0937,0.4375 0.23437,0.76563 l 2.21875,-4.20313 q -0.375,-0.32812 -0.85937,-0.32812 -0.5,0 -0.875,0.35937 -0.375,0.34375 -0.59375,0.98438 -0.20313,0.625 -0.20313,1.46875 z m 1.67188,2.8125 q 0.5,0 0.85937,-0.34375 0.375,-0.34375 0.57813,-0.96875 0.21875,-0.625 0.21875,-1.5 0,-0.5 -0.0937,-0.9375 -0.0781,-0.4375 -0.21875,-0.78125 l -2.21875,4.20312 q 0.375,0.32813 0.875,0.32813 z m 6.39382,1.04687 q -0.8125,0 -1.4375,-0.28125 -0.625,-0.28125 -0.98437,-0.76562 -0.35938,-0.5 -0.35938,-1.14063 0,-0.42187 0.20313,-0.78125 0.20312,-0.375 0.5625,-0.64062 0.375,-0.28125 0.84375,-0.39063 -0.60938,-0.20312 -0.98438,-0.64062 -0.35937,-0.45313 -0.35937,-1.01563 0,-0.57812 0.32812,-1.04687 0.32813,-0.46875 0.89063,-0.73438 0.57812,-0.26562 1.29687,-0.26562 0.71875,0 1.28125,0.26562 0.57813,0.26563 0.90625,0.73438 0.32813,0.46875 0.32813,1.04687 0,0.5625 -0.375,1.01563 -0.375,0.4375 -0.96875,0.64062 0.70312,0.17188 1.14062,0.67188 0.45313,0.5 0.45313,1.14062 0,0.64063 -0.35938,1.14063 -0.34375,0.48437 -0.98437,0.76562 -0.625,0.28125 -1.42188,0.28125 z m 0,-4.4375 q 0.39063,0 0.6875,-0.14062 0.3125,-0.15625 0.5,-0.42188 0.1875,-0.26562 0.1875,-0.59375 0,-0.32812 -0.1875,-0.57812 -0.1875,-0.26563 -0.5,-0.42188 -0.29687,-0.15625 -0.6875,-0.15625 -0.40625,0 -0.71875,0.15625 -0.29687,0.15625 -0.48437,0.42188 -0.17188,0.25 -0.17188,0.57812 0,0.32813 0.17188,0.59375 0.1875,0.26563 0.48437,0.42188 0.3125,0.14062 0.71875,0.14062 z m 0,3.46875 q 0.46875,0 0.8125,-0.15625 0.35938,-0.17187 0.5625,-0.46875 0.21875,-0.29687 0.21875,-0.65625 0,-0.375 -0.21875,-0.65625 -0.20312,-0.29687 -0.5625,-0.45312 -0.34375,-0.17188 -0.8125,-0.17188 -0.46875,0 -0.82812,0.17188 -0.35938,0.15625 -0.57813,0.45312 -0.20312,0.28125 -0.20312,0.65625 0,0.35938 0.20312,0.65625 0.21875,0.29688 0.57813,0.46875 0.35937,0.15625 0.82812,0.15625 z m 7.31568,0.84375 v -1.84375 h -3.90625 v -0.95312 l 3.76562,-4.65625 h 1.26563 v 4.60937 h 0.95312 v 1 h -0.95312 v 1.84375 z m -2.625,-2.84375 h 2.625 v -3.25 z m 5.59695,4.5625 v -0.85937 h 4.98438 v 0.85937 z m 8.8938,-1.59375 q -0.84375,0 -1.48437,-0.46875 -0.625,-0.46875 -0.98438,-1.32812 -0.35937,-0.85938 -0.35937,-2.0625 0,-1.20313 0.35937,-2.0625 0.35938,-0.85938 0.98438,-1.3125 0.64062,-0.46875 1.48437,-0.46875 0.82813,0 1.46875,0.46875 0.64063,0.45312 0.98438,1.3125 0.35937,0.85937 0.35937,2.0625 0,1.20312 -0.35937,2.0625 -0.34375,0.85937 -0.98438,1.32812 -0.64062,0.46875 -1.46875,0.46875 z m -1.67187,-3.85937 q 0,0.51562 0.0781,0.95312 0.0937,0.4375 0.23438,0.76563 l 2.21875,-4.20313 q -0.375,-0.32812 -0.85938,-0.32812 -0.5,0 -0.875,0.35937 -0.375,0.34375 -0.59375,0.98438 -0.20312,0.625 -0.20312,1.46875 z m 1.67187,2.8125 q 0.5,0 0.85938,-0.34375 0.375,-0.34375 0.57812,-0.96875 0.21875,-0.625 0.21875,-1.5 0,-0.5 -0.0937,-0.9375 -0.0781,-0.4375 -0.21875,-0.78125 l -2.21875,4.20312 q 0.375,0.32813 0.875,0.32813 z m 6.39383,1.01562 q -0.39062,0 -0.65625,-0.25 -0.25,-0.26562 -0.25,-0.625 0,-0.375 0.25,-0.64062 0.26563,-0.26563 0.65625,-0.26563 0.375,0 0.625,0.26563 0.26563,0.26562 0.26563,0.64062 0,0.35938 -0.26563,0.625 -0.25,0.25 -0.625,0.25 z m 4.00318,2.14063 v -7.57813 h 1.17187 v 0.65625 q 0.28125,-0.35937 0.65625,-0.53125 0.39063,-0.1875 0.85938,-0.1875 0.67187,0 1.21875,0.375 0.5625,0.35938 0.875,0.98438 0.32812,0.60937 0.32812,1.375 0,0.78125 -0.32812,1.40625 -0.32813,0.60937 -0.875,0.98437 -0.54688,0.35938 -1.23438,0.35938 -0.4375,0 -0.8125,-0.15625 -0.375,-0.17188 -0.65625,-0.48438 v 2.79688 z m 2.40625,-3.14063 q 0.45312,0 0.78125,-0.21875 0.34375,-0.23437 0.53125,-0.625 0.20312,-0.40625 0.20312,-0.92187 0,-0.5 -0.20312,-0.89063 -0.1875,-0.40625 -0.53125,-0.625 -0.32813,-0.23437 -0.78125,-0.23437 -0.35938,0 -0.67188,0.14062 -0.3125,0.14063 -0.53125,0.40625 v 2.42188 q 0.21875,0.26562 0.53125,0.40625 0.3125,0.14062 0.67188,0.14062 z m 4.03445,0.90625 v -5.34375 h 1.20312 v 0.79688 q 0.625,-0.875 1.64063,-0.875 0.5625,0 0.96875,0.25 0.42187,0.23437 0.65625,0.67187 0.25,0.42188 0.25,0.98438 v 3.51562 h -1.21875 v -3.17187 q 0,-0.59375 -0.32813,-0.9375 -0.3125,-0.34375 -0.84375,-0.34375 -0.34375,0 -0.64062,0.15625 -0.28125,0.14062 -0.48438,0.42187 v 3.875 z m 8.67505,2.32813 q -0.57813,0 -1.125,-0.14063 -0.54688,-0.125 -1.01563,-0.375 l 0.42188,-0.89062 q 0.46875,0.23437 0.875,0.34375 0.40625,0.10937 0.79687,0.10937 1.28125,0 1.28125,-1.1875 v -0.84375 q -0.28125,0.34375 -0.6875,0.53125 -0.39062,0.17188 -0.85937,0.17188 -0.65625,0 -1.20313,-0.35938 -0.53125,-0.375 -0.84375,-0.98437 -0.3125,-0.625 -0.3125,-1.375 0,-0.76563 0.32813,-1.375 0.32812,-0.60938 0.875,-0.96875 0.5625,-0.35938 1.23437,-0.35938 0.4375,0 0.8125,0.17188 0.39063,0.15625 0.67188,0.48437 v -0.625 h 1.1875 v 5.53125 q 0,1.03125 -0.625,1.57813 -0.625,0.5625 -1.8125,0.5625 z m 0.0312,-3.26563 q 0.375,0 0.67187,-0.14062 0.3125,-0.15625 0.53125,-0.40625 v -2.35938 q -0.21875,-0.26562 -0.53125,-0.40625 -0.3125,-0.14062 -0.67187,-0.14062 -0.4375,0 -0.78125,0.21875 -0.34375,0.21875 -0.54688,0.60937 -0.1875,0.39063 -0.1875,0.89063 0,0.5 0.1875,0.89062 0.20313,0.39063 0.54688,0.625 0.34375,0.21875 0.78125,0.21875 z m 5.3157,2.70313 0.64063,-2.8125 h 1.40625 l -1.15625,2.8125 z m 7.50318,-1.64063 q -0.84375,0 -1.48438,-0.46875 -0.625,-0.46875 -0.98437,-1.32812 -0.35938,-0.85938 -0.35938,-2.0625 0,-1.20313 0.35938,-2.0625 0.35937,-0.85938 0.98437,-1.3125 0.64063,-0.46875 1.48438,-0.46875 0.82812,0 1.46875,0.46875 0.64062,0.45312 0.98437,1.3125 0.35938,0.85937 0.35938,2.0625 0,1.20312 -0.35938,2.0625 -0.34375,0.85937 -0.98437,1.32812 -0.64063,0.46875 -1.46875,0.46875 z m -1.67188,-3.85937 q 0,0.51562 0.0781,0.95312 0.0937,0.4375 0.23437,0.76563 l 2.21875,-4.20313 q -0.375,-0.32812 -0.85937,-0.32812 -0.5,0 -0.875,0.35937 -0.375,0.34375 -0.59375,0.98438 -0.20313,0.625 -0.20313,1.46875 z m 1.67188,2.8125 q 0.5,0 0.85937,-0.34375 0.375,-0.34375 0.57813,-0.96875 0.21875,-0.625 0.21875,-1.5 0,-0.5 -0.0937,-0.9375 -0.0781,-0.4375 -0.21875,-0.78125 l -2.21875,4.20312 q 0.375,0.32813 0.875,0.32813 z"
       fill-rule="nonzero"
       id="path13" />
    <path
       fill="#000000"
       d="m 338.49234,156.45802 q -1,0 -1.53125,-0.4375 -0.51562,-0.45313 -0.51562,-1.29688 v -2.75 h -1.70313 v -0.96875 h 1.70313 v -1.46875 l 1.20312,-0.25 v 1.71875 h 2.26563 v 0.96875 h -2.26563 v 2.51563 q 0,0.5 0.23438,0.71875 0.25,0.21875 0.76562,0.21875 0.28125,0 0.57813,-0.0469 0.29687,-0.0469 0.70312,-0.1875 v 1.01563 q -0.34375,0.10937 -0.71875,0.17187 -0.375,0.0781 -0.71875,0.0781 z m 5.5813,0 q -0.76563,0 -1.40625,-0.35938 -0.625,-0.375 -1,-1 -0.35938,-0.64062 -0.35938,-1.42187 0,-0.78125 0.34375,-1.39063 0.34375,-0.625 0.95313,-0.98437 0.60937,-0.375 1.34375,-0.375 0.78125,0 1.375,0.35937 0.60937,0.35938 0.95312,0.98438 0.34375,0.60937 0.34375,1.40625 v 0.29687 h -4.125 q 0.0469,0.4375 0.28125,0.78125 0.23438,0.32813 0.57813,0.51563 0.35937,0.1875 0.79687,0.1875 0.40625,0 0.76563,-0.15625 0.35937,-0.15625 0.59375,-0.4375 l 0.79687,0.70312 q -0.45312,0.46875 -1.01562,0.6875 -0.54688,0.20313 -1.21875,0.20313 z m -1.5625,-3.25 h 2.96875 q -0.0625,-0.39063 -0.28125,-0.67188 -0.20313,-0.29687 -0.51563,-0.45312 -0.3125,-0.17188 -0.70312,-0.17188 -0.375,0 -0.6875,0.15625 -0.29688,0.15625 -0.5,0.45313 -0.20313,0.29687 -0.28125,0.6875 z m 7.78445,3.25 q -0.75,0 -1.39062,-0.1875 -0.625,-0.20313 -1.07813,-0.57813 l 0.59375,-0.79687 q 0.54688,0.34375 0.98438,0.48437 0.4375,0.14063 0.875,0.14063 0.59375,0 0.9375,-0.1875 0.34375,-0.20313 0.34375,-0.51563 0,-0.23437 -0.20313,-0.375 -0.1875,-0.14062 -0.5,-0.20312 -0.29687,-0.0625 -0.67187,-0.10938 -0.375,-0.0625 -0.76563,-0.14062 -0.375,-0.0937 -0.6875,-0.25 -0.3125,-0.15625 -0.51562,-0.4375 -0.1875,-0.28125 -0.1875,-0.73438 0,-0.51562 0.28125,-0.875 0.28125,-0.375 0.78125,-0.57812 0.51562,-0.20313 1.15625,-0.20313 0.625,0 1.20312,0.17188 0.57813,0.15625 1.10938,0.53125 l -0.57813,0.78125 q -0.4375,-0.29688 -0.875,-0.42188 -0.4375,-0.125 -0.89062,-0.125 -0.51563,0 -0.8125,0.17188 -0.29688,0.15625 -0.29688,0.45312 0,0.23438 0.1875,0.375 0.20313,0.125 0.51563,0.1875 0.32812,0.0625 0.70312,0.125 0.39063,0.0469 0.76563,0.14063 0.375,0.0781 0.6875,0.23437 0.32812,0.15625 0.51562,0.45313 0.20313,0.28125 0.20313,0.75 0,0.5 -0.32813,0.89062 -0.3125,0.39063 -0.85937,0.60938 -0.53125,0.21875 -1.20313,0.21875 z m 7.37818,0 q -1,0 -1.53125,-0.4375 -0.51563,-0.45313 -0.51563,-1.29688 v -2.75 h -1.70312 v -0.96875 h 1.70312 v -1.46875 l 1.20313,-0.25 v 1.71875 h 2.26562 v 0.96875 h -2.26562 v 2.51563 q 0,0.5 0.23437,0.71875 0.25,0.21875 0.76563,0.21875 0.28125,0 0.57812,-0.0469 0.29688,-0.0469 0.70313,-0.1875 v 1.01563 q -0.34375,0.10937 -0.71875,0.17187 -0.375,0.0781 -0.71875,0.0781 z m 3.0032,-0.10938 v -1 h 1.875 v -5.23437 l -1.875,0.8125 v -1.04688 l 2.3125,-0.98437 h 0.73438 v 6.45312 h 2 v 1 z m 8.84693,0.125 q -0.84375,0 -1.48438,-0.46875 -0.625,-0.46875 -0.98437,-1.32812 -0.35938,-0.85938 -0.35938,-2.0625 0,-1.20313 0.35938,-2.0625 0.35937,-0.85938 0.98437,-1.3125 0.64063,-0.46875 1.48438,-0.46875 0.82812,0 1.46875,0.46875 0.64062,0.45312 0.98437,1.3125 0.35938,0.85937 0.35938,2.0625 0,1.20312 -0.35938,2.0625 -0.34375,0.85937 -0.98437,1.32812 -0.64063,0.46875 -1.46875,0.46875 z m -1.67188,-3.85937 q 0,0.51562 0.0781,0.95312 0.0937,0.4375 0.23437,0.76563 l 2.21875,-4.20313 q -0.375,-0.32812 -0.85937,-0.32812 -0.5,0 -0.875,0.35937 -0.375,0.34375 -0.59375,0.98438 -0.20313,0.625 -0.20313,1.46875 z m 1.67188,2.8125 q 0.5,0 0.85937,-0.34375 0.375,-0.34375 0.57813,-0.96875 0.21875,-0.625 0.21875,-1.5 0,-0.5 -0.0937,-0.9375 -0.0781,-0.4375 -0.21875,-0.78125 l -2.21875,4.20312 q 0.375,0.32813 0.875,0.32813 z m 6.14382,-6.64063 q 0.90625,0 1.59375,0.46875 0.70313,0.45313 1.09375,1.28125 0.39063,0.8125 0.39063,1.89063 0,1.21875 -0.4375,2.125 -0.42188,0.90625 -1.21875,1.42187 -0.78125,0.5 -1.8125,0.5 -0.54688,0 -1.07813,-0.17187 -0.53125,-0.17188 -0.90625,-0.46875 l 0.64063,-0.85938 q 0.32812,0.23438 0.67187,0.34375 0.35938,0.10938 0.76563,0.10938 0.70312,0 1.1875,-0.34375 0.5,-0.35938 0.75,-1.01563 0.26562,-0.67187 0.28125,-1.625 -0.375,0.53125 -0.92188,0.8125 -0.54687,0.28125 -1.125,0.28125 -0.75,0 -1.3125,-0.28125 -0.5625,-0.29687 -0.89062,-0.8125 -0.3125,-0.51562 -0.3125,-1.1875 0,-0.70312 0.34375,-1.26562 0.34375,-0.5625 0.9375,-0.875 0.59375,-0.32813 1.35937,-0.32813 z m 0.0469,3.84375 q 0.53125,0 1,-0.23437 0.46875,-0.25 0.82812,-0.67188 -0.0937,-0.57812 -0.34375,-1.01562 -0.25,-0.4375 -0.64062,-0.67188 -0.39063,-0.25 -0.85938,-0.25 -0.4375,0 -0.78125,0.1875 -0.32812,0.1875 -0.53125,0.51563 -0.20312,0.32812 -0.20312,0.73437 0,0.40625 0.1875,0.73438 0.20312,0.3125 0.54687,0.5 0.34375,0.17187 0.79688,0.17187 z m 6.59692,3.84375 q -0.84375,0 -1.48437,-0.46875 -0.625,-0.46875 -0.98438,-1.32812 -0.35937,-0.85938 -0.35937,-2.0625 0,-1.20313 0.35937,-2.0625 0.35938,-0.85938 0.98438,-1.3125 0.64062,-0.46875 1.48437,-0.46875 0.82813,0 1.46875,0.46875 0.64063,0.45312 0.98438,1.3125 0.35937,0.85937 0.35937,2.0625 0,1.20312 -0.35937,2.0625 -0.34375,0.85937 -0.98438,1.32812 -0.64062,0.46875 -1.46875,0.46875 z m -1.67187,-3.85937 q 0,0.51562 0.0781,0.95312 0.0937,0.4375 0.23438,0.76563 l 2.21875,-4.20313 q -0.375,-0.32812 -0.85938,-0.32812 -0.5,0 -0.875,0.35937 -0.375,0.34375 -0.59375,0.98438 -0.20312,0.625 -0.20312,1.46875 z m 1.67187,2.8125 q 0.5,0 0.85938,-0.34375 0.375,-0.34375 0.57812,-0.96875 0.21875,-0.625 0.21875,-1.5 0,-0.5 -0.0937,-0.9375 -0.0781,-0.4375 -0.21875,-0.78125 l -2.21875,4.20312 q 0.375,0.32813 0.875,0.32813 z m 3.89383,2.64062 v -0.85937 h 4.98438 v 0.85937 z m 8.8938,-1.59375 q -0.84375,0 -1.48437,-0.46875 -0.625,-0.46875 -0.98438,-1.32812 -0.35937,-0.85938 -0.35937,-2.0625 0,-1.20313 0.35937,-2.0625 0.35938,-0.85938 0.98438,-1.3125 0.64062,-0.46875 1.48437,-0.46875 0.82813,0 1.46875,0.46875 0.64063,0.45312 0.98438,1.3125 0.35937,0.85937 0.35937,2.0625 0,1.20312 -0.35937,2.0625 -0.34375,0.85937 -0.98438,1.32812 -0.64062,0.46875 -1.46875,0.46875 z m -1.67187,-3.85937 q 0,0.51562 0.0781,0.95312 0.0937,0.4375 0.23438,0.76563 l 2.21875,-4.20313 q -0.375,-0.32812 -0.85938,-0.32812 -0.5,0 -0.875,0.35937 -0.375,0.34375 -0.59375,0.98438 -0.20312,0.625 -0.20312,1.46875 z m 1.67187,2.8125 q 0.5,0 0.85938,-0.34375 0.375,-0.34375 0.57812,-0.96875 0.21875,-0.625 0.21875,-1.5 0,-0.5 -0.0937,-0.9375 -0.0781,-0.4375 -0.21875,-0.78125 l -2.21875,4.20312 q 0.375,0.32813 0.875,0.32813 z m 6.39383,1.01562 q -0.39062,0 -0.65625,-0.25 -0.25,-0.26562 -0.25,-0.625 0,-0.375 0.25,-0.64062 0.26563,-0.26563 0.65625,-0.26563 0.375,0 0.625,0.26563 0.26563,0.26562 0.26563,0.64062 0,0.35938 -0.26563,0.625 -0.25,0.25 -0.625,0.25 z m 4.00318,2.14063 v -7.57813 h 1.17187 v 0.65625 q 0.28125,-0.35937 0.65625,-0.53125 0.39063,-0.1875 0.85938,-0.1875 0.67187,0 1.21875,0.375 0.5625,0.35938 0.875,0.98438 0.32812,0.60937 0.32812,1.375 0,0.78125 -0.32812,1.40625 -0.32813,0.60937 -0.875,0.98437 -0.54688,0.35938 -1.23438,0.35938 -0.4375,0 -0.8125,-0.15625 -0.375,-0.17188 -0.65625,-0.48438 v 2.79688 z m 2.40625,-3.14063 q 0.45312,0 0.78125,-0.21875 0.34375,-0.23437 0.53125,-0.625 0.20312,-0.40625 0.20312,-0.92187 0,-0.5 -0.20312,-0.89063 -0.1875,-0.40625 -0.53125,-0.625 -0.32813,-0.23437 -0.78125,-0.23437 -0.35938,0 -0.67188,0.14062 -0.3125,0.14063 -0.53125,0.40625 v 2.42188 q 0.21875,0.26562 0.53125,0.40625 0.3125,0.14062 0.67188,0.14062 z m 4.03445,0.90625 v -5.34375 H 413.14 v 0.79688 q 0.625,-0.875 1.64063,-0.875 0.5625,0 0.96875,0.25 0.42187,0.23437 0.65625,0.67187 0.25,0.42188 0.25,0.98438 v 3.51562 h -1.21875 v -3.17187 q 0,-0.59375 -0.32813,-0.9375 -0.3125,-0.34375 -0.84375,-0.34375 -0.34375,0 -0.64062,0.15625 -0.28125,0.14062 -0.48438,0.42187 v 3.875 z m 8.67505,2.32813 q -0.57813,0 -1.125,-0.14063 -0.54688,-0.125 -1.01563,-0.375 l 0.42188,-0.89062 q 0.46875,0.23437 0.875,0.34375 0.40625,0.10937 0.79687,0.10937 1.28125,0 1.28125,-1.1875 v -0.84375 q -0.28125,0.34375 -0.6875,0.53125 -0.39062,0.17188 -0.85937,0.17188 -0.65625,0 -1.20313,-0.35938 -0.53125,-0.375 -0.84375,-0.98437 -0.3125,-0.625 -0.3125,-1.375 0,-0.76563 0.32813,-1.375 0.32812,-0.60938 0.875,-0.96875 0.5625,-0.35938 1.23437,-0.35938 0.4375,0 0.8125,0.17188 0.39063,0.15625 0.67188,0.48437 v -0.625 h 1.1875 v 5.53125 q 0,1.03125 -0.625,1.57813 -0.625,0.5625 -1.8125,0.5625 z m 0.0312,-3.26563 q 0.375,0 0.67187,-0.14062 0.3125,-0.15625 0.53125,-0.40625 v -2.35938 q -0.21875,-0.26562 -0.53125,-0.40625 -0.3125,-0.14062 -0.67187,-0.14062 -0.4375,0 -0.78125,0.21875 -0.34375,0.21875 -0.54688,0.60937 -0.1875,0.39063 -0.1875,0.89063 0,0.5 0.1875,0.89062 0.20313,0.39063 0.54688,0.625 0.34375,0.21875 0.78125,0.21875 z m 5.3157,2.70313 0.64063,-2.8125 h 1.40625 l -1.15625,2.8125 z m 7.3313,-1.64063 q -1.51562,0 -2.625,-1.01562 l 0.70313,-0.79688 q 0.48437,0.42188 0.9375,0.60938 0.46875,0.1875 1.01562,0.1875 0.48438,0 0.84375,-0.17188 0.35938,-0.1875 0.54688,-0.51562 0.20312,-0.34375 0.20312,-0.76563 0,-0.625 -0.45312,-1.01562 -0.45313,-0.39063 -1.17188,-0.39063 -0.35937,0 -0.71875,0.0937 -0.35937,0.0937 -0.75,0.29688 l -0.8125,-0.25 0.17188,-3.84375 h 4.53125 v 1 h -3.51563 l -0.0937,2.14062 q 0.40625,-0.20312 0.76563,-0.26562 0.375,-0.0781 0.76562,-0.0781 0.73438,0 1.28125,0.28125 0.5625,0.28125 0.875,0.79688 0.3125,0.5 0.3125,1.17187 0,0.75 -0.35937,1.32813 -0.34375,0.5625 -0.98438,0.89062 -0.625,0.3125 -1.46875,0.3125 z"
       fill-rule="nonzero"
       id="path15" />
    <path
       fill="#000000"
       d="m 338.49234,169.25803 q -1,0 -1.53125,-0.4375 -0.51562,-0.45313 -0.51562,-1.29688 v -2.75 h -1.70313 v -0.96875 h 1.70313 v -1.46875 l 1.20312,-0.25 v 1.71875 h 2.26563 v 0.96875 h -2.26563 v 2.51563 q 0,0.5 0.23438,0.71875 0.25,0.21875 0.76562,0.21875 0.28125,0 0.57813,-0.0469 0.29687,-0.0469 0.70312,-0.1875 v 1.01563 q -0.34375,0.10937 -0.71875,0.17187 -0.375,0.0781 -0.71875,0.0781 z m 5.5813,0 q -0.76563,0 -1.40625,-0.35938 -0.625,-0.375 -1,-1 -0.35938,-0.64062 -0.35938,-1.42187 0,-0.78125 0.34375,-1.39063 0.34375,-0.625 0.95313,-0.98437 0.60937,-0.375 1.34375,-0.375 0.78125,0 1.375,0.35937 0.60937,0.35938 0.95312,0.98438 0.34375,0.60937 0.34375,1.40625 v 0.29687 h -4.125 q 0.0469,0.4375 0.28125,0.78125 0.23438,0.32813 0.57813,0.51563 0.35937,0.1875 0.79687,0.1875 0.40625,0 0.76563,-0.15625 0.35937,-0.15625 0.59375,-0.4375 l 0.79687,0.70312 q -0.45312,0.46875 -1.01562,0.6875 -0.54688,0.20313 -1.21875,0.20313 z m -1.5625,-3.25 h 2.96875 q -0.0625,-0.39063 -0.28125,-0.67188 -0.20313,-0.29687 -0.51563,-0.45312 -0.3125,-0.17188 -0.70312,-0.17188 -0.375,0 -0.6875,0.15625 -0.29688,0.15625 -0.5,0.45313 -0.20313,0.29687 -0.28125,0.6875 z m 7.78445,3.25 q -0.75,0 -1.39062,-0.1875 -0.625,-0.20313 -1.07813,-0.57813 l 0.59375,-0.79687 q 0.54688,0.34375 0.98438,0.48437 0.4375,0.14063 0.875,0.14063 0.59375,0 0.9375,-0.1875 0.34375,-0.20313 0.34375,-0.51563 0,-0.23437 -0.20313,-0.375 -0.1875,-0.14062 -0.5,-0.20312 -0.29687,-0.0625 -0.67187,-0.10938 -0.375,-0.0625 -0.76563,-0.14062 -0.375,-0.0937 -0.6875,-0.25 -0.3125,-0.15625 -0.51562,-0.4375 -0.1875,-0.28125 -0.1875,-0.73438 0,-0.51562 0.28125,-0.875 0.28125,-0.375 0.78125,-0.57812 0.51562,-0.20313 1.15625,-0.20313 0.625,0 1.20312,0.17188 0.57813,0.15625 1.10938,0.53125 l -0.57813,0.78125 q -0.4375,-0.29688 -0.875,-0.42188 -0.4375,-0.125 -0.89062,-0.125 -0.51563,0 -0.8125,0.17188 -0.29688,0.15625 -0.29688,0.45312 0,0.23438 0.1875,0.375 0.20313,0.125 0.51563,0.1875 0.32812,0.0625 0.70312,0.125 0.39063,0.0469 0.76563,0.14063 0.375,0.0781 0.6875,0.23437 0.32812,0.15625 0.51562,0.45313 0.20313,0.28125 0.20313,0.75 0,0.5 -0.32813,0.89062 -0.3125,0.39063 -0.85937,0.60938 -0.53125,0.21875 -1.20313,0.21875 z m 7.37818,0 q -1,0 -1.53125,-0.4375 -0.51563,-0.45313 -0.51563,-1.29688 v -2.75 h -1.70312 v -0.96875 h 1.70312 v -1.46875 l 1.20313,-0.25 v 1.71875 h 2.26562 v 0.96875 h -2.26562 v 2.51563 q 0,0.5 0.23437,0.71875 0.25,0.21875 0.76563,0.21875 0.28125,0 0.57812,-0.0469 0.29688,-0.0469 0.70313,-0.1875 v 1.01563 q -0.34375,0.10937 -0.71875,0.17187 -0.375,0.0781 -0.71875,0.0781 z m 3.0032,-0.10938 v -1 h 1.875 v -5.23437 l -1.875,0.8125 v -1.04688 l 2.3125,-0.98437 h 0.73438 v 6.45312 h 2 v 1 z m 8.84693,0.125 q -0.84375,0 -1.48438,-0.46875 -0.625,-0.46875 -0.98437,-1.32812 -0.35938,-0.85938 -0.35938,-2.0625 0,-1.20313 0.35938,-2.0625 0.35937,-0.85938 0.98437,-1.3125 0.64063,-0.46875 1.48438,-0.46875 0.82812,0 1.46875,0.46875 0.64062,0.45312 0.98437,1.3125 0.35938,0.85937 0.35938,2.0625 0,1.20312 -0.35938,2.0625 -0.34375,0.85937 -0.98437,1.32812 -0.64063,0.46875 -1.46875,0.46875 z m -1.67188,-3.85937 q 0,0.51562 0.0781,0.95312 0.0937,0.4375 0.23437,0.76563 l 2.21875,-4.20313 q -0.375,-0.32812 -0.85937,-0.32812 -0.5,0 -0.875,0.35937 -0.375,0.34375 -0.59375,0.98438 -0.20313,0.625 -0.20313,1.46875 z m 1.67188,2.8125 q 0.5,0 0.85937,-0.34375 0.375,-0.34375 0.57813,-0.96875 0.21875,-0.625 0.21875,-1.5 0,-0.5 -0.0937,-0.9375 -0.0781,-0.4375 -0.21875,-0.78125 l -2.21875,4.20312 q 0.375,0.32813 0.875,0.32813 z m 6.14382,-6.64063 q 0.90625,0 1.59375,0.46875 0.70313,0.45313 1.09375,1.28125 0.39063,0.8125 0.39063,1.89063 0,1.21875 -0.4375,2.125 -0.42188,0.90625 -1.21875,1.42187 -0.78125,0.5 -1.8125,0.5 -0.54688,0 -1.07813,-0.17187 -0.53125,-0.17188 -0.90625,-0.46875 l 0.64063,-0.85938 q 0.32812,0.23438 0.67187,0.34375 0.35938,0.10938 0.76563,0.10938 0.70312,0 1.1875,-0.34375 0.5,-0.35938 0.75,-1.01563 0.26562,-0.67187 0.28125,-1.625 -0.375,0.53125 -0.92188,0.8125 -0.54687,0.28125 -1.125,0.28125 -0.75,0 -1.3125,-0.28125 -0.5625,-0.29687 -0.89062,-0.8125 -0.3125,-0.51562 -0.3125,-1.1875 0,-0.70312 0.34375,-1.26562 0.34375,-0.5625 0.9375,-0.875 0.59375,-0.32813 1.35937,-0.32813 z m 0.0469,3.84375 q 0.53125,0 1,-0.23437 0.46875,-0.25 0.82812,-0.67188 -0.0937,-0.57812 -0.34375,-1.01562 -0.25,-0.4375 -0.64062,-0.67188 -0.39063,-0.25 -0.85938,-0.25 -0.4375,0 -0.78125,0.1875 -0.32812,0.1875 -0.53125,0.51563 -0.20312,0.32812 -0.20312,0.73437 0,0.40625 0.1875,0.73438 0.20312,0.3125 0.54687,0.5 0.34375,0.17187 0.79688,0.17187 z m 4.61255,3.71875 3.48437,-6.4375 h -4.28125 v -1.01562 h 5.54688 v 0.875 l -3.375,6.57812 z m 5.8782,1.71875 v -0.85937 h 4.98438 v 0.85937 z m 8.8938,-1.59375 q -0.84375,0 -1.48437,-0.46875 -0.625,-0.46875 -0.98438,-1.32812 -0.35937,-0.85938 -0.35937,-2.0625 0,-1.20313 0.35937,-2.0625 0.35938,-0.85938 0.98438,-1.3125 0.64062,-0.46875 1.48437,-0.46875 0.82813,0 1.46875,0.46875 0.64063,0.45312 0.98438,1.3125 0.35937,0.85937 0.35937,2.0625 0,1.20312 -0.35937,2.0625 -0.34375,0.85937 -0.98438,1.32812 -0.64062,0.46875 -1.46875,0.46875 z m -1.67187,-3.85937 q 0,0.51562 0.0781,0.95312 0.0937,0.4375 0.23438,0.76563 l 2.21875,-4.20313 q -0.375,-0.32812 -0.85938,-0.32812 -0.5,0 -0.875,0.35937 -0.375,0.34375 -0.59375,0.98438 -0.20312,0.625 -0.20312,1.46875 z m 1.67187,2.8125 q 0.5,0 0.85938,-0.34375 0.375,-0.34375 0.57812,-0.96875 0.21875,-0.625 0.21875,-1.5 0,-0.5 -0.0937,-0.9375 -0.0781,-0.4375 -0.21875,-0.78125 l -2.21875,4.20312 q 0.375,0.32813 0.875,0.32813 z m 6.39383,1.01562 q -0.39062,0 -0.65625,-0.25 -0.25,-0.26562 -0.25,-0.625 0,-0.375 0.25,-0.64062 0.26563,-0.26563 0.65625,-0.26563 0.375,0 0.625,0.26563 0.26563,0.26562 0.26563,0.64062 0,0.35938 -0.26563,0.625 -0.25,0.25 -0.625,0.25 z m 4.00318,2.14063 v -7.57813 h 1.17187 v 0.65625 q 0.28125,-0.35937 0.65625,-0.53125 0.39063,-0.1875 0.85938,-0.1875 0.67187,0 1.21875,0.375 0.5625,0.35938 0.875,0.98438 0.32812,0.60937 0.32812,1.375 0,0.78125 -0.32812,1.40625 -0.32813,0.60937 -0.875,0.98437 -0.54688,0.35938 -1.23438,0.35938 -0.4375,0 -0.8125,-0.15625 -0.375,-0.17188 -0.65625,-0.48438 v 2.79688 z m 2.40625,-3.14063 q 0.45312,0 0.78125,-0.21875 0.34375,-0.23437 0.53125,-0.625 0.20312,-0.40625 0.20312,-0.92187 0,-0.5 -0.20312,-0.89063 -0.1875,-0.40625 -0.53125,-0.625 -0.32813,-0.23437 -0.78125,-0.23437 -0.35938,0 -0.67188,0.14062 -0.3125,0.14063 -0.53125,0.40625 v 2.42188 q 0.21875,0.26562 0.53125,0.40625 0.3125,0.14062 0.67188,0.14062 z m 4.03445,0.90625 V 163.8049 H 413.14 v 0.79688 q 0.625,-0.875 1.64063,-0.875 0.5625,0 0.96875,0.25 0.42187,0.23437 0.65625,0.67187 0.25,0.42188 0.25,0.98438 v 3.51562 h -1.21875 v -3.17187 q 0,-0.59375 -0.32813,-0.9375 -0.3125,-0.34375 -0.84375,-0.34375 -0.34375,0 -0.64062,0.15625 -0.28125,0.14062 -0.48438,0.42187 v 3.875 z m 8.67505,2.32813 q -0.57813,0 -1.125,-0.14063 -0.54688,-0.125 -1.01563,-0.375 l 0.42188,-0.89062 q 0.46875,0.23437 0.875,0.34375 0.40625,0.10937 0.79687,0.10937 1.28125,0 1.28125,-1.1875 v -0.84375 q -0.28125,0.34375 -0.6875,0.53125 -0.39062,0.17188 -0.85937,0.17188 -0.65625,0 -1.20313,-0.35938 -0.53125,-0.375 -0.84375,-0.98437 -0.3125,-0.625 -0.3125,-1.375 0,-0.76563 0.32813,-1.375 0.32812,-0.60938 0.875,-0.96875 0.5625,-0.35938 1.23437,-0.35938 0.4375,0 0.8125,0.17188 0.39063,0.15625 0.67188,0.48437 v -0.625 h 1.1875 v 5.53125 q 0,1.03125 -0.625,1.57813 -0.625,0.5625 -1.8125,0.5625 z m 0.0312,-3.26563 q 0.375,0 0.67187,-0.14062 0.3125,-0.15625 0.53125,-0.40625 v -2.35938 q -0.21875,-0.26562 -0.53125,-0.40625 -0.3125,-0.14062 -0.67187,-0.14062 -0.4375,0 -0.78125,0.21875 -0.34375,0.21875 -0.54688,0.60937 -0.1875,0.39063 -0.1875,0.89063 0,0.5 0.1875,0.89062 0.20313,0.39063 0.54688,0.625 0.34375,0.21875 0.78125,0.21875 z m 5.3157,2.70313 0.64063,-2.8125 h 1.40625 l -1.15625,2.8125 z m 7.50318,-1.64063 q -0.84375,0 -1.48438,-0.46875 -0.625,-0.46875 -0.98437,-1.32812 -0.35938,-0.85938 -0.35938,-2.0625 0,-1.20313 0.35938,-2.0625 0.35937,-0.85938 0.98437,-1.3125 0.64063,-0.46875 1.48438,-0.46875 0.82812,0 1.46875,0.46875 0.64062,0.45312 0.98437,1.3125 0.35938,0.85937 0.35938,2.0625 0,1.20312 -0.35938,2.0625 -0.34375,0.85937 -0.98437,1.32812 -0.64063,0.46875 -1.46875,0.46875 z m -1.67188,-3.85937 q 0,0.51562 0.0781,0.95312 0.0937,0.4375 0.23437,0.76563 l 2.21875,-4.20313 q -0.375,-0.32812 -0.85937,-0.32812 -0.5,0 -0.875,0.35937 -0.375,0.34375 -0.59375,0.98438 -0.20313,0.625 -0.20313,1.46875 z m 1.67188,2.8125 q 0.5,0 0.85937,-0.34375 0.375,-0.34375 0.57813,-0.96875 0.21875,-0.625 0.21875,-1.5 0,-0.5 -0.0937,-0.9375 -0.0781,-0.4375 -0.21875,-0.78125 l -2.21875,4.20312 q 0.375,0.32813 0.875,0.32813 z"
       fill-rule="nonzero"
       id="path17" />
    <path
       fill="#000000"
       d="m 337.55484,182.04239 q -0.39062,0 -0.65625,-0.25 -0.25,-0.26563 -0.25,-0.625 0,-0.375 0.25,-0.64063 0.26563,-0.26562 0.65625,-0.26562 0.375,0 0.625,0.26562 0.26563,0.26563 0.26563,0.64063 0,0.35937 -0.26563,0.625 -0.25,0.25 -0.625,0.25 z m 12.78763,0 q -0.39063,0 -0.65625,-0.25 -0.25,-0.26563 -0.25,-0.625 0,-0.375 0.25,-0.64063 0.26562,-0.26562 0.65625,-0.26562 0.375,0 0.625,0.26562 0.26562,0.26563 0.26562,0.64063 0,0.35937 -0.26562,0.625 -0.25,0.25 -0.625,0.25 z m 12.78763,0 q -0.39063,0 -0.65625,-0.25 -0.25,-0.26563 -0.25,-0.625 0,-0.375 0.25,-0.64063 0.26562,-0.26562 0.65625,-0.26562 0.375,0 0.625,0.26562 0.26562,0.26563 0.26562,0.64063 0,0.35937 -0.26562,0.625 -0.25,0.25 -0.625,0.25 z"
       fill-rule="nonzero"
       id="path19" />
  </g>
</svg>
